<svg id="그룹_7699" data-name="그룹 7699" xmlns="http://www.w3.org/2000/svg" xmlns:xlink="http://www.w3.org/1999/xlink" width="18" height="18" viewBox="0 0 18 18">
  <defs>
    <clipPath id="clip-path">
      <rect id="사각형_3182" data-name="사각형 3182" width="18" height="18" fill="none"/>
    </clipPath>
  </defs>
  <g id="그룹_7698" data-name="그룹 7698" clip-path="url(#clip-path)">
    <path id="패스_3532" data-name="패스 3532" d="M3,18a1,1,0,0,1-1-1V15.142L1,15a1,1,0,0,1-1-1V5A1,1,0,0,1,1,4l1-.142V2A1,1,0,0,1,3,1h9V2h1V3h1V4h1V5H14V4H13V3H12V2H3V3.714L8,3A1,1,0,0,1,9,4V15a1,1,0,0,1-1,1l-5-.716V17H15a1,1,0,0,1-1,1Zm1.5-6.907L5.263,12.3,7.3,12.3,5.486,9.538,7.3,6.694H5.377L4.5,8.036,3.62,6.694H1.7l1.81,2.847L1.7,12.305,3.731,12.3,4.5,11.094ZM14.506,15.02h-.025a.515.515,0,0,1-.358-.148l-2.988-2.993a.508.508,0,0,1,0-.715.5.5,0,0,1,.707-.006l.006.006L14,13.316V7.5a.5.5,0,0,1,1,0v5.827l2.132-2.135a.5.5,0,0,1,.708.71L14.871,14.87a.493.493,0,0,1-.357.149Z" fill="#7b7b7b"/>
  </g>
</svg>
