<svg id="그룹_7708" data-name="그룹 7708" xmlns="http://www.w3.org/2000/svg" xmlns:xlink="http://www.w3.org/1999/xlink" width="18" height="18" viewBox="0 0 18 18">
  <defs>
    <clipPath id="clip-path">
      <rect id="사각형_3185" data-name="사각형 3185" width="18" height="18" fill="none"/>
    </clipPath>
  </defs>
  <g id="그룹_7707" data-name="그룹 7707" clip-path="url(#clip-path)">
    <path id="패스_3535" data-name="패스 3535" d="M15.5,2h.024a.5.5,0,0,1,.429.289l.009.02V2.33a.5.5,0,0,1,.038.2V6.5a.5.5,0,0,1-1,0V3.707L10.354,8.353a.5.5,0,0,1-.709-.7L14.292,3H11.5a.5.5,0,0,1,0-1Z" fill="#707070"/>
    <path id="패스_3536" data-name="패스 3536" d="M8.355,9.646a.5.5,0,0,1,0,.707l0,0L3.708,15H6.5a.5.5,0,0,1,0,1H2.53a.5.5,0,0,1-.2-.029H2.31l-.018-.017a.5.5,0,0,1-.245-.244.018.018,0,0,0-.007-.017c-.007-.006,0-.009,0-.014v-.006a.487.487,0,0,1-.03-.2V11.5a.5.5,0,0,1,1,0v2.792L7.649,9.646a.5.5,0,0,1,.706,0" fill="#707070"/>
  </g>
</svg>
