<svg id="그룹_7692" data-name="그룹 7692" xmlns="http://www.w3.org/2000/svg" xmlns:xlink="http://www.w3.org/1999/xlink" width="18" height="18" viewBox="0 0 18 18">
  <defs>
    <clipPath id="clip-path">
      <rect id="사각형_3180" data-name="사각형 3180" width="18" height="18" fill="none"/>
    </clipPath>
  </defs>
  <g id="그룹_7691" data-name="그룹 7691" clip-path="url(#clip-path)">
    <path id="패스_3523" data-name="패스 3523" d="M1.646,9a7.5,7.5,0,0,0,13.1,4.988A.5.5,0,1,0,14,13.326,6.487,6.487,0,1,1,14.435,5.2H12.854a.5.5,0,0,0,0,1h3a.5.5,0,0,0,.5-.5v-3a.5.5,0,0,0-1,0V4.832A7.482,7.482,0,0,0,1.646,9" transform="translate(0)" fill="#7b7b7b"/>
  </g>
</svg>
