<svg id="그룹_7695" data-name="그룹 7695" xmlns="http://www.w3.org/2000/svg" xmlns:xlink="http://www.w3.org/1999/xlink" width="18" height="18" viewBox="0 0 18 18">
  <defs>
    <clipPath id="clip-path">
      <rect id="사각형_3181" data-name="사각형 3181" width="18" height="18" fill="none"/>
    </clipPath>
  </defs>
  <g id="그룹_7694" data-name="그룹 7694" clip-path="url(#clip-path)">
    <path id="패스_3524" data-name="패스 3524" d="M10.8,14.667H2.535a.5.5,0,1,1,0-1H10.8a.5.5,0,0,1,0,1" fill="#7b7b7b"/>
    <path id="패스_3525" data-name="패스 3525" d="M15.234,14.667H13.9a.5.5,0,0,1,0-1h1.333a.5.5,0,0,1,0,1" fill="#7b7b7b"/>
    <path id="패스_3526" data-name="패스 3526" d="M12.568,16A1.833,1.833,0,1,1,14.4,14.167,1.833,1.833,0,0,1,12.568,16m0-2.667a.833.833,0,1,0,.833.834.833.833,0,0,0-.833-.834" fill="#7b7b7b"/>
    <path id="패스_3527" data-name="패스 3527" d="M4.368,9.2H2.5a.5.5,0,0,1,0-1H4.368a.5.5,0,0,1,0,1" fill="#7b7b7b"/>
    <path id="패스_3528" data-name="패스 3528" d="M15.2,9.2H7.466a.5.5,0,0,1,0-1H15.2a.5.5,0,1,1,0,1" fill="#7b7b7b"/>
    <path id="패스_3529" data-name="패스 3529" d="M5.7,10.529A1.833,1.833,0,1,1,7.534,8.695,1.833,1.833,0,0,1,5.7,10.529m0-2.667a.833.833,0,1,0,.833.833A.833.833,0,0,0,5.7,7.862" fill="#7b7b7b"/>
    <path id="패스_3530" data-name="패스 3530" d="M12.545,4.333H2.537a.5.5,0,0,1,0-1H12.545a.5.5,0,0,1,0,1" fill="#7b7b7b"/>
    <path id="패스_3531" data-name="패스 3531" d="M14.168,5.666A1.833,1.833,0,1,1,16,3.833a1.833,1.833,0,0,1-1.833,1.833m0-2.666A.833.833,0,1,0,15,3.833.833.833,0,0,0,14.168,3" fill="#7b7b7b"/>
  </g>
</svg>
