<svg id="그룹_7678" data-name="그룹 7678" xmlns="http://www.w3.org/2000/svg" xmlns:xlink="http://www.w3.org/1999/xlink" width="18" height="18" viewBox="0 0 18 18">
  <defs>
    <clipPath id="clip-path">
      <rect id="사각형_3167" data-name="사각형 3167" width="18" height="18" fill="none"/>
    </clipPath>
  </defs>
  <g id="그룹_7677" data-name="그룹 7677" clip-path="url(#clip-path)">
    <path id="패스_3519" data-name="패스 3519" d="M10.5,1A3.5,3.5,0,0,0,7,4.5V11a2,2,0,0,0,4,0V5H10v6a1,1,0,0,1-2,0V4.5a2.5,2.5,0,0,1,5,0V11a4,4,0,0,1-8,0V3H4v8a5,5,0,0,0,10,0V4.5A3.5,3.5,0,0,0,10.5,1" transform="translate(0 0.5)" fill="#7b7b7b"/>
  </g>
</svg>
