<svg id="그룹_7705" data-name="그룹 7705" xmlns="http://www.w3.org/2000/svg" xmlns:xlink="http://www.w3.org/1999/xlink" width="18" height="18" viewBox="0 0 18 18">
  <defs>
    <clipPath id="clip-path">
      <rect id="사각형_3184" data-name="사각형 3184" width="18" height="18" fill="none"/>
    </clipPath>
  </defs>
  <g id="그룹_7704" data-name="그룹 7704" clip-path="url(#clip-path)">
    <path id="패스_3534" data-name="패스 3534" d="M2.538,16A.539.539,0,0,1,2,15.462V12.231a.538.538,0,1,1,1.077,0v2.692H14.923V12.231a.538.538,0,1,1,1.077,0v3.231a.539.539,0,0,1-.538.538ZM8.66,11.033,4.852,7.227a.538.538,0,0,1,.759-.764L8.46,9.312V2.538a.538.538,0,1,1,1.077,0V9.391l2.928-2.926a.54.54,0,1,1,.762.764L9.42,11.034a.534.534,0,0,1-.76,0" fill="#7b7b7b"/>
  </g>
</svg>
