<svg xmlns="http://www.w3.org/2000/svg" width="18" height="18" viewBox="0 0 18 18">
  <g id="그룹_7730" data-name="그룹 7730" transform="translate(-925 -2514)">
    <rect id="사각형_3200" data-name="사각형 3200" width="18" height="18" transform="translate(925 2514)" fill="rgba(255,255,255,0)"/>
    <g id="그룹_55201" data-name="그룹 55201" transform="translate(926.003 2515.004)">
      <path id="합치기_1161" data-name="합치기 1161" d="M5.269,13.927a.512.512,0,0,1-.243-.436V8.1L.443,2.917A1.831,1.831,0,0,1,0,1.622V1.167A1.174,1.174,0,0,1,1.182,0H11.814a1.174,1.174,0,0,1,1.181,1.167v.455a1.833,1.833,0,0,1-.441,1.3L7.947,8.123v4.083a.51.51,0,0,1-.228.431L5.771,13.919A.464.464,0,0,1,5.514,14a.5.5,0,0,1-.245-.074Z" transform="translate(1.499 0.996)" fill="none" stroke="#7b7b7b" stroke-width="1"/>
      <path id="사각형_29153" data-name="사각형 29153" d="M0,0H3V1H0Z" transform="translate(6.495 8.269)" fill="#7b7b7b"/>
    </g>
  </g>
</svg>
