<svg id="그룹_7701" data-name="그룹 7701" xmlns="http://www.w3.org/2000/svg" xmlns:xlink="http://www.w3.org/1999/xlink" width="18" height="18" viewBox="0 0 18 18">
  <defs>
    <clipPath id="clip-path">
      <rect id="사각형_3183" data-name="사각형 3183" width="18" height="18" fill="none"/>
    </clipPath>
  </defs>
  <g id="그룹_7700" data-name="그룹 7700" clip-path="url(#clip-path)">
    <path id="패스_3533" data-name="패스 3533" d="M3,18a1,1,0,0,1-1-1V15.143L1,15a1,1,0,0,1-1-1V5A1,1,0,0,1,1,4l1-.143V2A1,1,0,0,1,3,1h9V2h1V3h1V4h1V5H14V4H13V3H12V2H3V3.713L8,3A1,1,0,0,1,9,4V15a1,1,0,0,1-1,1l-5-.714V17H15a1,1,0,0,1-1,1Zm1.5-6.906.765,1.2L7.3,12.3,5.487,9.535,7.3,6.688H5.38L4.5,8.031,3.62,6.688H1.7l1.81,2.847L1.7,12.3l2.037-.005.765-1.2ZM14,14.5V8.71l-2.147,2.146a.505.505,0,0,1-.715-.714l2.988-2.981a.508.508,0,0,1,.382-.146.5.5,0,0,1,.368.146l2.964,2.958a.5.5,0,0,1-.707.7L15,8.7v5.8a.5.5,0,0,1-1,0Z" fill="#7b7b7b"/>
  </g>
</svg>
